<?xml version="1.0" encoding="UTF-8"?>
<svg width="216px" height="30px" viewBox="0 0 216 30" version="1.1" xmlns="http://www.w3.org/2000/svg" xmlns:xlink="http://www.w3.org/1999/xlink">
    <!-- Generator: Sketch 55.2 (78181) - https://sketchapp.com -->
    <title>Combined Shape</title>
    <desc>Created with Sketch.</desc>
    <g id="Website" stroke="none" stroke-width="1" fill="none" fill-rule="evenodd">
        <g id="Desktop-HD-Copy-4" transform="translate(-80.000000, -40.000000)" fill="#141414" fill-rule="nonzero">
            <g id="Group-4" transform="translate(80.000000, 40.000000)">
                <path d="M66.7951242,5.4491018 C68.7345473,5.4491018 70.2890617,5.94310883 71.4587138,6.93113772 C72.6283659,7.91916662 73.3431426,9.24150868 73.6030653,10.8982036 L70.3640448,10.8982036 C70.2240865,9.99999551 69.8392067,9.27644985 69.209394,8.72754491 C68.5795814,8.17863997 67.7448422,7.90419162 66.7051514,7.90419162 C65.8454071,7.90419162 65.1806148,8.10878039 64.7107546,8.51796407 C64.2408943,8.92714775 64.0059677,9.48103443 64.0059677,10.1796407 C64.0059677,10.6986054 64.1759163,11.1177629 64.5158135,11.4371257 C64.8557124,11.7564886 65.2805797,12.0059871 65.790428,12.1856287 C66.3002764,12.3652704 67.02505,12.5648692 67.9647705,12.7844311 C69.2044018,13.0638737 70.2090879,13.3532919 70.9788589,13.6526946 C71.7486299,13.9520973 72.4084238,14.4261445 72.9582603,15.0748503 C73.5080967,15.7235561 73.7830108,16.6067808 73.7830108,17.7245509 C73.7830108,19.1018033 73.2581748,20.2195566 72.208487,21.0778443 C71.1587992,21.936132 69.7442412,22.3652695 67.9647705,22.3652695 C65.905383,22.3652695 64.240903,21.8862323 62.9712806,20.9281437 C61.7016583,19.9700551 60.9368972,18.6327431 60.6769745,16.9161677 L64.0059677,16.9161677 C64.105938,17.8143757 64.505813,18.5429114 65.2056049,19.1017964 C65.9053968,19.6606814 66.8251094,19.9401198 67.9647705,19.9401198 C68.7845266,19.9401198 69.4293252,19.725551 69.8991854,19.2964072 C70.3690457,18.8672633 70.6039723,18.3233566 70.6039723,17.6646707 C70.6039723,17.0858254 70.4240267,16.6267482 70.0641355,16.2874251 C69.7042426,15.9481021 69.2543831,15.6836337 68.7145437,15.494012 C68.174707,15.3043903 67.4349354,15.1097814 66.4952149,14.9101796 C65.2955717,14.6307371 64.3208762,14.3512988 63.5710992,14.0718563 C62.8213222,13.7924138 62.1815221,13.3383265 61.6516797,12.7095808 C61.1218373,12.0808352 60.8569201,11.2275503 60.8569201,10.1497006 C60.8569201,8.75248802 61.3817561,7.61976482 62.4314439,6.75149701 C63.4811317,5.88322919 64.9356772,5.4491018 66.7951242,5.4491018 Z M86.6791107,5.4491018 C88.1186825,5.4491018 89.4032811,5.78841976 90.5329451,6.46706587 C91.6626091,7.14571198 92.5473327,8.12374611 93.1871424,9.4011976 C93.8269521,10.6786491 94.1468522,12.1756401 94.1468522,13.8922156 C94.1468522,15.6287512 93.8269521,17.1357222 93.1871424,18.4131737 C92.5473327,19.6906251 91.6626091,20.6686627 90.5329451,21.3473054 C89.4032811,22.0259515 88.1186825,22.3652695 86.6791107,22.3652695 C85.1795567,22.3652695 83.8999565,21.9960117 82.8402716,21.257485 C81.7805868,20.5189584 81.0408179,19.5409243 80.6209428,18.3233533 L80.6209428,30 L77.2019768,30 L77.2019768,5.65868263 L80.6209428,5.65868263 L80.6209428,9.49101796 C81.0408179,8.27344701 81.7805868,7.29541287 82.8402716,6.55688623 C83.8999565,5.81835958 85.1795567,5.4491018 86.6791107,5.4491018 Z M85.6294281,8.44311377 C84.6697136,8.44311377 83.8099822,8.66766243 83.0502081,9.11676647 C82.2904341,9.56587051 81.6906215,10.2045867 81.2507524,11.0329341 C80.8108832,11.8612816 80.5909519,12.8143659 80.5909519,13.8922156 C80.5909519,14.9900254 80.8108832,15.9480997 81.2507524,16.7664671 C81.6906215,17.5848344 82.2904341,18.2185606 83.0502081,18.6676647 C83.8099822,19.1167687 84.6697136,19.3413174 85.6294281,19.3413174 C87.1489762,19.3413174 88.3685951,18.8572903 89.2883215,17.8892216 C90.208048,16.9211528 90.6679043,15.5888308 90.6679043,13.8922156 C90.6679043,12.2155605 90.208048,10.8882284 89.2883215,9.91017964 C88.3685951,8.93213084 87.1489762,8.44311377 85.6294281,8.44311377 Z M105.003569,5.4491018 C106.603093,5.4491018 108.042643,5.78841976 109.322263,6.46706587 C110.601882,7.14571198 111.601573,8.12374611 112.321356,9.4011976 C113.041142,10.6786491 113.401029,12.1756401 113.401029,13.8922156 C113.401029,15.6287512 113.041142,17.1357222 112.321356,18.4131737 C111.601573,19.6906251 110.601882,20.6686627 109.322263,21.3473054 C108.042643,22.0259515 106.603093,22.3652695 105.003569,22.3652695 C103.404045,22.3652695 101.969493,22.0259515 100.69987,21.3473054 C99.430248,20.6686627 98.4305603,19.6856352 97.7007774,18.3982036 C96.9709944,17.110772 96.6061084,15.608791 96.6061084,13.8922156 C96.6061084,12.1756401 96.9709944,10.6786491 97.7007774,9.4011976 C98.4305603,8.12374611 99.430248,7.14571198 100.69987,6.46706587 C101.969493,5.78841976 103.404045,5.4491018 105.003569,5.4491018 Z M105.003569,8.41317365 C104.12383,8.41317365 103.314083,8.61277246 102.574303,9.01197605 C101.834523,9.41117764 101.239709,10.024946 100.789843,10.8532934 C100.339977,11.6816409 100.115047,12.6946048 100.115047,13.8922156 C100.115047,15.1097865 100.339977,16.1277404 100.789843,16.9461078 C101.239709,17.7644751 101.834523,18.3732515 102.574303,18.7724551 C103.314083,19.1716587 104.12383,19.3712575 105.003569,19.3712575 C105.883307,19.3712575 106.693054,19.1716587 107.432834,18.7724551 C108.172614,18.3732515 108.767428,17.7644751 109.217294,16.9461078 C109.667161,16.1277404 109.89209,15.1097865 109.89209,13.8922156 C109.89209,12.6946048 109.667161,11.6816409 109.217294,10.8532934 C108.767428,10.024946 108.172614,9.41117764 107.432834,9.01197605 C106.693054,8.61277246 105.883307,8.41317365 105.003569,8.41317365 Z M125.007519,19.1916168 L125.007519,22.1556886 L122.908154,22.1556886 C121.148677,22.1556886 119.814094,21.7315412 118.904365,20.8832335 C117.994635,20.0349259 117.539777,18.6227644 117.539777,16.6467066 L117.539777,8.56287425 L115.170494,8.56287425 L115.170494,5.65868263 L117.539777,5.65868263 L117.539777,1.55688623 L120.988734,1.55688623 L120.988734,5.65868263 L124.977528,5.65868263 L124.977528,8.56287425 L120.988734,8.56287425 L120.988734,16.7065868 C120.988734,17.6447153 121.16368,18.2934114 121.513576,18.6526946 C121.863472,19.0119778 122.478279,19.1916168 123.358018,19.1916168 L125.007519,19.1916168 Z M137.573719,22.1556886 L131.635514,14.8203593 L131.635514,22.1556886 L128.216548,22.1556886 L128.216548,-6.03961325e-14 L131.635514,-6.03961325e-14 L131.635514,12.6946108 L137.513737,5.65868263 L141.622494,5.65868263 L134.424671,13.8622754 L141.80244,22.1556886 L137.573719,22.1556886 Z M153.258975,5.38922156 C155.178404,5.38922156 156.717923,6.00797784 157.877578,7.24550898 C159.037233,8.48304012 159.617052,10.2494895 159.617052,12.5449102 L159.617052,22.1556886 L156.198086,22.1556886 L156.198086,12.9041916 C156.198086,11.4271383 155.818205,10.2844352 155.058431,9.4760479 C154.298657,8.66766063 153.258981,8.26347305 151.939374,8.26347305 C150.579778,8.26347305 149.490119,8.69760045 148.670363,9.56586826 C147.850606,10.4341361 147.440734,11.7065784 147.440734,13.3832335 L147.440734,22.1556886 L144.021768,22.1556886 L144.021768,5.65868263 L147.440734,5.65868263 L147.440734,9.28143713 C147.880604,8.04390599 148.620372,7.08583174 149.660063,6.40718563 C150.699754,5.72853952 151.899379,5.38922156 153.258975,5.38922156 Z M170.233841,5.4491018 C171.733395,5.4491018 173.012995,5.81835958 174.07268,6.55688623 C175.132365,7.29541287 175.882131,8.27344701 176.322,9.49101796 L176.322,5.65868263 L179.740966,5.65868263 L179.740966,22.1556886 L176.322,22.1556886 L176.322,18.3233533 C175.882131,19.5409243 175.132365,20.5189584 174.07268,21.257485 C173.012995,21.9960117 171.733395,22.3652695 170.233841,22.3652695 C168.794269,22.3652695 167.509671,22.0259515 166.380007,21.3473054 C165.250343,20.6686627 164.365619,19.6906251 163.725809,18.4131737 C163.086,17.1357222 162.7661,15.6287512 162.7661,13.8922156 C162.7661,12.1756401 163.086,10.6786491 163.725809,9.4011976 C164.365619,8.12374611 165.250343,7.14571198 166.380007,6.46706587 C167.509671,5.78841976 168.794269,5.4491018 170.233841,5.4491018 Z M171.283524,8.44311377 C169.763976,8.44311377 168.549355,8.92714087 167.639626,9.89520958 C166.729896,10.8632783 166.275038,12.1956003 166.275038,13.8922156 C166.275038,15.5888308 166.729896,16.9211528 167.639626,17.8892216 C168.549355,18.8572903 169.763976,19.3413174 171.283524,19.3413174 C172.243238,19.3413174 173.10297,19.1167687 173.862744,18.6676647 C174.622518,18.2185606 175.22233,17.5848344 175.662199,16.7664671 C176.102069,15.9480997 176.322,14.9900254 176.322,13.8922156 C176.322,12.8143659 176.102069,11.8612816 175.662199,11.0329341 C175.22233,10.2045867 174.622518,9.56587051 173.862744,9.11676647 C173.10297,8.66766243 172.243238,8.44311377 171.283524,8.44311377 Z M191.197501,5.4491018 C193.336865,5.4491018 195.106312,6.01296841 196.505896,7.14071856 C197.905479,8.26846871 198.775208,9.80038952 199.115107,11.7365269 L195.486204,11.7365269 C195.286263,10.6985976 194.801415,9.88523249 194.031644,9.29640719 C193.261873,8.70758189 192.297174,8.41317365 191.137519,8.41317365 C189.817912,8.41317365 188.718255,8.87724087 187.838517,9.80538922 C186.958779,10.7335376 186.518916,12.0957994 186.518916,13.8922156 C186.518916,15.6886317 186.958779,17.0558835 187.838517,17.994012 C188.718255,18.9321404 189.817912,19.4011976 191.137519,19.4011976 C192.297174,19.4011976 193.261873,19.1017994 194.031644,18.502994 C194.801415,17.9041886 195.286263,17.0858335 195.486204,16.0479042 L199.115107,16.0479042 C198.775208,17.9840416 197.905479,19.5209524 196.505896,20.6586826 C195.106312,21.7964129 193.336865,22.3652695 191.197501,22.3652695 C189.597977,22.3652695 188.183419,22.0259515 186.953784,21.3473054 C185.72415,20.6686627 184.759448,19.6906251 184.05966,18.4131737 C183.359868,17.1357222 183.009977,15.6287512 183.009977,13.8922156 C183.009977,12.1756401 183.359868,10.6786491 184.05966,9.4011976 C184.759448,8.12374611 185.72415,7.14571198 186.953784,6.46706587 C188.183419,5.78841976 189.597977,5.4491018 191.197501,5.4491018 Z M211.771279,22.1556886 L205.833075,14.8203593 L205.833075,22.1556886 L202.414109,22.1556886 L202.414109,-6.03961325e-14 L205.833075,-6.03961325e-14 L205.833075,12.6946108 L211.711297,5.65868263 L215.820054,5.65868263 L208.622231,13.8622754 L216,22.1556886 L211.771279,22.1556886 Z M28.9472991,7.38237826 L34.5972769,4.69647077 C36.1036182,3.98038063 37.7505608,3.60883864 39.4184484,3.60883864 C45.6202053,3.60883864 50.6477225,8.63635591 50.6477225,14.8381128 C50.6477225,16.5060004 50.2761805,18.152943 49.5600904,19.6592843 C46.8974309,25.2603585 40.1983511,27.6424143 34.5972769,24.9797547 L28.949671,22.2949748 C25.7853228,26.0080667 20.4118534,27.2949473 15.7960719,25.1006799 L2.48668876,18.7736158 C0.967797344,18.0515595 0,16.5198964 0,14.8381128 C0,13.1563291 0.967797344,11.624666 2.48668876,10.9026097 L15.7960719,4.57554562 C17.2785401,3.87080436 18.8993813,3.50515071 20.5408356,3.50515071 C23.9062574,3.50515071 26.9203257,5.00947375 28.9472991,7.38237826 Z M41.1199331,23.5988408 C45.2741853,23.5988408 48.6418721,19.6765292 48.6418721,14.8381128 C48.6418721,9.99969626 45.2741853,6.07738471 41.1199331,6.07738471 C36.9656809,6.07738471 33.5979941,9.99969626 33.5979941,14.8381128 C33.5979941,19.6765292 36.9656809,23.5988408 41.1199331,23.5988408 Z M22.0643544,23.5988408 C26.2186066,23.5988408 29.5862934,19.6765292 29.5862934,14.8381128 C29.5862934,9.99969626 26.2186066,6.07738471 22.0643544,6.07738471 C17.9101022,6.07738471 14.5424154,9.99969626 14.5424154,14.8381128 C14.5424154,19.6765292 17.9101022,23.5988408 22.0643544,23.5988408 Z M43,17 C41.8954305,17 41,15.6568542 41,14 C41,12.3431458 41.8954305,11 43,11 C44.1045695,11 45,12.3431458 45,14 C45,15.6568542 44.1045695,17 43,17 Z M24,17 C22.8954305,17 22,15.6568542 22,14 C22,12.3431458 22.8954305,11 24,11 C25.1045695,11 26,12.3431458 26,14 C26,15.6568542 25.1045695,17 24,17 Z" id="Combined-Shape"></path>
            </g>
        </g>
    </g>
</svg>