<svg xmlns="http://www.w3.org/2000/svg" width="216" height="30" fill="none" viewBox="0 0 216 30">
    <path fill="#141414" fill-rule="evenodd" d="M131.636 14.82l5.938 7.336h4.228l-7.377-8.294 7.197-8.203h-4.108l-5.878 7.036V0h-3.419v22.156h3.419V14.82zm-6.628 4.372v2.964h-2.1c-1.759 0-3.094-.424-4.004-1.273-.909-.848-1.364-2.26-1.364-4.236V8.563h-2.37V5.659h2.37V1.557h3.449v4.102h3.989v2.904h-3.989v8.144c0 .938.175 1.586.525 1.946.349.359.964.539 1.844.539h1.65zM66.795 5.449c1.94 0 3.494.494 4.664 1.482 1.17.988 1.884 2.31 2.144 3.967h-3.239c-.14-.898-.525-1.622-1.155-2.17-.63-.55-1.464-.824-2.504-.824-.86 0-1.524.205-1.994.614-.47.41-.705.963-.705 1.662 0 .519.17.938.51 1.257.34.32.765.569 1.274.749.51.18 1.235.379 2.175.598 1.24.28 2.244.57 3.014.869.77.3 1.43.773 1.98 1.422.55.649.824 1.532.824 2.65 0 1.377-.525 2.495-1.575 3.353-1.05.858-2.464 1.287-4.243 1.287-2.06 0-3.724-.479-4.994-1.437-1.27-.958-2.034-2.295-2.294-4.012h3.329c.1.898.5 1.627 1.2 2.186.7.559 1.62.838 2.759.838.82 0 1.464-.214 1.934-.644.47-.429.705-.973.705-1.631 0-.58-.18-1.038-.54-1.378-.36-.339-.81-.603-1.35-.793-.54-.19-1.28-.384-2.219-.584-1.2-.28-2.174-.559-2.924-.838a4.558 4.558 0 0 1-1.92-1.362c-.53-.63-.794-1.482-.794-2.56 0-1.398.525-2.53 1.574-3.399 1.05-.868 2.505-1.302 4.364-1.302zm19.884 0c1.44 0 2.724.34 3.854 1.018 1.13.679 2.014 1.657 2.654 2.934.64 1.278.96 2.775.96 4.491 0 1.737-.32 3.244-.96 4.521-.64 1.278-1.524 2.256-2.654 2.934-1.13.679-2.414 1.018-3.854 1.018-1.5 0-2.78-.369-3.839-1.107a5.795 5.795 0 0 1-2.22-2.935V30h-3.418V5.659h3.419V9.49a5.795 5.795 0 0 1 2.22-2.934c1.059-.739 2.339-1.108 3.838-1.108zM83.05 9.117c.76-.45 1.62-.674 2.58-.674 1.519 0 2.739.49 3.658 1.467.92.978 1.38 2.306 1.38 3.982 0 1.697-.46 3.03-1.38 3.997-.92.968-2.139 1.452-3.659 1.452-.96 0-1.819-.224-2.579-.673-.76-.45-1.36-1.083-1.8-1.901-.44-.819-.66-1.777-.66-2.875 0-1.078.22-2.03.66-2.86.44-.827 1.04-1.466 1.8-1.915zm21.954-3.668c1.599 0 3.039.34 4.318 1.018a7.306 7.306 0 0 1 2.999 2.934c.72 1.278 1.08 2.775 1.08 4.491 0 1.737-.36 3.244-1.08 4.521a7.306 7.306 0 0 1-2.999 2.934c-1.279.679-2.719 1.018-4.318 1.018-1.6 0-3.035-.339-4.304-1.018-1.27-.678-2.27-1.661-3-2.949-.729-1.287-1.094-2.79-1.094-4.506 0-1.716.365-3.213 1.095-4.49a7.435 7.435 0 0 1 2.999-2.935c1.269-.679 2.704-1.018 4.304-1.018zm-2.43 3.563c.74-.4 1.55-.599 2.43-.599.879 0 1.689.2 2.429.599.74.4 1.334 1.013 1.784 1.841.45.829.675 1.842.675 3.04 0 1.217-.225 2.235-.675 3.053-.45.819-1.044 1.427-1.784 1.826-.74.4-1.55.6-2.429.6-.88 0-1.69-.2-2.43-.6-.739-.399-1.334-1.007-1.784-1.826-.45-.818-.675-1.836-.675-3.054 0-1.197.225-2.21.675-3.039.45-.828 1.045-1.442 1.784-1.841zm50.685-3.623c1.919 0 3.459.619 4.619 1.857 1.159 1.237 1.739 3.003 1.739 5.299v9.61h-3.419v-9.25c0-1.478-.38-2.62-1.14-3.429-.759-.808-1.799-1.213-3.119-1.213-1.359 0-2.449.435-3.269 1.303-.819.868-1.229 2.14-1.229 3.817v8.773h-3.419V5.659h3.419V9.28c.44-1.237 1.179-2.195 2.219-2.874 1.04-.678 2.239-1.018 3.599-1.018zm20.814 1.168c-1.06-.739-2.34-1.108-3.839-1.108-1.44 0-2.724.34-3.854 1.018-1.13.679-2.014 1.657-2.654 2.934-.64 1.278-.96 2.775-.96 4.491 0 1.737.32 3.244.96 4.521.64 1.278 1.524 2.256 2.654 2.934 1.13.679 2.414 1.018 3.854 1.018 1.499 0 2.779-.369 3.839-1.107a5.967 5.967 0 0 0 2.249-2.935v3.833h3.419V5.659h-3.419V9.49a5.967 5.967 0 0 0-2.249-2.934zm-2.789 1.886c-1.52 0-2.735.484-3.644 1.452-.91.968-1.365 2.3-1.365 3.997s.455 3.03 1.365 3.997c.909.968 2.124 1.452 3.644 1.452.959 0 1.819-.224 2.579-.673.76-.45 1.359-1.083 1.799-1.901.44-.819.66-1.777.66-2.875 0-1.078-.22-2.03-.66-2.86-.44-.827-1.039-1.466-1.799-1.915-.76-.45-1.62-.674-2.579-.674zm25.222-1.302c-1.4-1.128-3.169-1.692-5.309-1.692-1.599 0-3.014.34-4.243 1.018-1.23.679-2.195 1.657-2.894 2.934-.7 1.278-1.05 2.775-1.05 4.491 0 1.737.35 3.244 1.05 4.521.699 1.278 1.664 2.256 2.894 2.934 1.229.679 2.644 1.018 4.243 1.018 2.14 0 3.909-.569 5.309-1.706 1.399-1.138 2.269-2.675 2.609-4.611h-3.629c-.2 1.038-.685 1.856-1.454 2.455-.77.599-1.735.898-2.894.898-1.32 0-2.42-.469-3.299-1.407-.88-.938-1.32-2.305-1.32-4.102 0-1.796.44-3.159 1.32-4.087.879-.928 1.979-1.392 3.299-1.392 1.159 0 2.124.295 2.894.883.769.59 1.254 1.403 1.454 2.44h3.629c-.34-1.936-1.21-3.468-2.609-4.595zm15.265 15.015l-5.938-7.336v7.336h-3.419V0h3.419v12.695l5.878-7.036h4.109l-7.198 8.203L216 22.156h-4.229zM15.541 4.696c4.83-2.295 10.14-.821 13.28 2.746l5.776-2.746c7.451-3.542 16.05 1.892 16.05 10.142s-8.599 13.684-16.05 10.142l-5.776-2.746c-3.14 3.567-8.45 5.041-13.28 2.746L.86 18A1.505 1.505 0 0 1 0 16.64v-3.604c0-.581.334-1.11.859-1.36l14.683-6.98zm-.999 10.142c0 4.839 3.368 8.76 7.522 8.76 4.155 0 7.522-3.921 7.522-8.76 0-4.838-3.367-8.76-7.522-8.76-4.154 0-7.522 3.922-7.522 8.76zm19.056 0c0 4.839 3.368 8.76 7.522 8.76s7.522-3.921 7.522-8.76c0-4.838-3.368-8.76-7.522-8.76s-7.522 3.922-7.522 8.76z" clip-rule="evenodd"/>
</svg>
